<svg width="14" height="15" viewBox="0 0 14 15" fill="none" xmlns="http://www.w3.org/2000/svg">
<path d="M10.2103 0.296387H3.78967C1.70001 0.296387 0 1.9964 0 4.08605V10.5068C0 12.5964 1.70001 14.2964 3.78967 14.2964H10.2104C12.3 14.2964 14 12.5964 14 10.5068V4.08605C14 1.9964 12.3 0.296387 10.2103 0.296387ZM13.1792 10.5068C13.1792 12.1438 11.8474 13.4756 10.2103 13.4756H3.78967C2.15257 13.4756 0.820738 12.1438 0.820738 10.5068V4.08605C0.820738 2.44896 2.15257 1.11712 3.78967 1.11712H10.2104C11.8474 1.11712 13.1792 2.44896 13.1792 4.08605V10.5068Z" fill="#030917"/>
<path d="M6.99989 3.46826C4.88908 3.46826 3.17188 5.18547 3.17188 7.29627C3.17188 9.40708 4.88908 11.1243 6.99989 11.1243C9.11069 11.1243 10.8279 9.40708 10.8279 7.29627C10.8279 5.18547 9.11069 3.46826 6.99989 3.46826ZM6.99989 10.3035C5.34175 10.3035 3.99261 8.95452 3.99261 7.29627C3.99261 5.63813 5.34175 4.289 6.99989 4.289C8.65813 4.289 10.0072 5.63813 10.0072 7.29627C10.0072 8.95452 8.65813 10.3035 6.99989 10.3035Z" fill="#030917"/>
<path d="M10.9197 2.1084C10.2959 2.1084 9.78857 2.61586 9.78857 3.23953C9.78857 3.86331 10.2959 4.37077 10.9197 4.37077C11.5435 4.37077 12.0509 3.86331 12.0509 3.23953C12.0509 2.61575 11.5435 2.1084 10.9197 2.1084ZM10.9197 3.54992C10.7486 3.54992 10.6093 3.41064 10.6093 3.23953C10.6093 3.06831 10.7486 2.92914 10.9197 2.92914C11.0909 2.92914 11.2302 3.06831 11.2302 3.23953C11.2302 3.41064 11.0909 3.54992 10.9197 3.54992Z" fill="#030917"/>
</svg>
