<svg width="15" height="15" viewBox="0 0 15 15" fill="none" xmlns="http://www.w3.org/2000/svg">
<mask id="path-1-inside-1_122_623" fill="white">
<path d="M14.2976 14.2967L14.3011 14.2961L14.3011 9.16187C14.3011 6.65016 13.7604 4.71533 10.824 4.71533C9.41239 4.71533 8.4651 5.48996 8.07837 6.22435H8.03754V4.94982H5.25342L5.25342 14.2961H8.15245L8.15245 9.66818C8.15245 8.44966 8.38344 7.27138 9.89245 7.27138C11.3793 7.27138 11.4015 8.66198 11.4015 9.74635L11.4015 14.2967H14.2976Z"/>
</mask>
<path d="M14.2976 14.2967L14.3011 14.2961L14.3011 9.16187C14.3011 6.65016 13.7604 4.71533 10.824 4.71533C9.41239 4.71533 8.4651 5.48996 8.07837 6.22435H8.03754V4.94982H5.25342L5.25342 14.2961H8.15245L8.15245 9.66818C8.15245 8.44966 8.38344 7.27138 9.89245 7.27138C11.3793 7.27138 11.4015 8.66198 11.4015 9.74635L11.4015 14.2967H14.2976Z" fill="#030917"/>
<path d="M14.2976 14.2967L14.2976 35.6301H16.0621L17.8026 35.3402L14.2976 14.2967ZM14.3011 14.2961L17.8061 35.3396L35.6344 32.3701V14.2961L14.3011 14.2961ZM8.07837 6.22435L8.07837 27.5577L20.9547 27.5577L26.9543 16.1646L8.07837 6.22435ZM8.03754 6.22435L-13.2958 6.22435L-13.2958 27.5577L8.03754 27.5577L8.03754 6.22435ZM8.03754 4.94982L29.3709 4.94982L29.3709 -16.3835L8.03754 -16.3835L8.03754 4.94982ZM5.25342 4.94982L5.25342 -16.3835L-16.0799 -16.3835L-16.0799 4.94982L5.25342 4.94982ZM5.25342 14.2961L-16.0799 14.2961L-16.0799 35.6295H5.25342L5.25342 14.2961ZM8.15245 14.2961L8.15245 35.6295H29.4858L29.4858 14.2961L8.15245 14.2961ZM11.4015 14.2967L-9.93187 14.2967L-9.93187 35.6301H11.4015L11.4015 14.2967ZM17.8026 35.3402L17.8061 35.3396L10.7961 -6.7473L10.7926 -6.74671L17.8026 35.3402ZM35.6344 14.2961V9.16187L-7.03226 9.16187L-7.03226 14.2961L35.6344 14.2961ZM35.6344 9.16187C35.6344 7.44085 35.6865 0.935291 31.7167 -5.3698C26.3232 -13.9362 17.559 -16.618 10.824 -16.618L10.824 26.0487C9.2891 26.0487 6.55546 25.8033 3.43873 24.3201C0.0887051 22.7258 -2.58509 20.229 -4.38941 17.3632C-6.03512 14.7494 -6.60604 12.4 -6.82283 11.1999C-7.04057 9.99453 -7.03226 9.18804 -7.03226 9.16187L35.6344 9.16187ZM10.824 -16.618C1.13843 -16.618 -6.88952 -11.1371 -10.7976 -3.7159L26.9543 16.1646C23.8197 22.1171 17.6864 26.0487 10.824 26.0487L10.824 -16.618ZM8.07837 -15.109H8.03754L8.03754 27.5577H8.07837L8.07837 -15.109ZM29.3709 6.22435V4.94982L-13.2958 4.94982V6.22435L29.3709 6.22435ZM8.03754 -16.3835H5.25342L5.25342 26.2832H8.03754L8.03754 -16.3835ZM-16.0799 4.94982V14.2961L26.5868 14.2961V4.94982L-16.0799 4.94982ZM5.25342 35.6295H8.15245L8.15245 -7.0372H5.25342L5.25342 35.6295ZM29.4858 14.2961V9.66818L-13.1809 9.66818V14.2961L29.4858 14.2961ZM29.4858 9.66818C29.4858 9.9447 29.4802 10.8872 29.2759 12.1605C29.0774 13.3968 28.5769 15.704 27.1388 18.3126C25.5772 21.1451 23.0341 24.08 19.3188 26.1374C15.7266 28.1266 12.2885 28.6047 9.89245 28.6047L9.89245 -14.062C6.74191 -14.062 2.70905 -13.4366 -1.35085 -11.1883C-5.53386 -8.87195 -8.41772 -5.56627 -10.2257 -2.28693C-13.2879 3.26752 -13.1809 8.66877 -13.1809 9.66818L29.4858 9.66818ZM9.89245 28.6047C6.85914 28.6047 2.63296 27.8507 -1.45032 25.0021C-5.48795 22.1854 -7.59551 18.569 -8.62949 15.9586C-9.58929 13.5356 -9.80681 11.5507 -9.87367 10.8035C-9.94413 10.016 -9.93187 9.41827 -9.93187 9.74635L32.7348 9.74635C32.7348 9.53224 32.7443 8.35404 32.6232 7.00086C32.5057 5.68792 32.1897 3.1521 31.0385 0.245836C29.8132 -2.84772 27.4213 -6.87961 22.9613 -9.99094C18.4557 -13.1341 13.6692 -14.062 9.89245 -14.062L9.89245 28.6047ZM-9.93187 9.74635L-9.93187 14.2967L32.7348 14.2967V9.74635L-9.93187 9.74635ZM11.4015 35.6301H14.2976L14.2976 -7.03662H11.4015L11.4015 35.6301Z" fill="#030917" mask="url(#path-1-inside-1_122_623)"/>
<mask id="path-3-inside-2_122_623" fill="white">
<path d="M0.532715 4.94971L3.43525 4.94971L3.43525 14.296H0.532715L0.532715 4.94971Z"/>
</mask>
<path d="M0.532715 4.94971L3.43525 4.94971L3.43525 14.296H0.532715L0.532715 4.94971Z" fill="#030917"/>
<path d="M0.532715 4.94971L0.532715 -16.3836L-20.8006 -16.3836L-20.8006 4.94971L0.532715 4.94971ZM3.43525 4.94971L24.7686 4.94971L24.7686 -16.3836L3.43525 -16.3836L3.43525 4.94971ZM3.43525 14.296L3.43525 35.6294H24.7686L24.7686 14.296L3.43525 14.296ZM0.532715 14.296L-20.8006 14.296L-20.8006 35.6294H0.532715L0.532715 14.296ZM0.532715 26.283H3.43525L3.43525 -16.3836H0.532715L0.532715 26.283ZM-17.8981 4.94971V14.296L24.7686 14.296V4.94971L-17.8981 4.94971ZM3.43525 -7.03732H0.532715L0.532715 35.6294H3.43525L3.43525 -7.03732ZM21.866 14.296V4.94971L-20.8006 4.94971V14.296L21.866 14.296Z" fill="#030917" mask="url(#path-3-inside-2_122_623)"/>
<path d="M3.66393 1.97747C3.66393 2.90551 2.91089 3.67431 1.98285 3.67431C1.05551 3.67431 0.302901 2.90668 0.301759 1.97959L1.98285 1.97853L3.66393 1.97747ZM3.66393 1.97747C3.66335 1.04943 2.9103 0.296387 1.98285 0.296387C1.05481 0.296387 0.301758 1.04943 0.301758 1.97747L1.98285 1.97747L3.66393 1.97747Z" fill="#030917" stroke="#030917" stroke-width="21.3333"/>
</svg>
