<svg width="14" height="15" viewBox="0 0 14 15" fill="none" xmlns="http://www.w3.org/2000/svg">
<mask id="path-1-inside-1_122_615" fill="white">
<path d="M8.45401 6.22443L13.5538 0.296387H12.3453L7.91717 5.44362L4.38046 0.296387H0.30127L5.64948 8.07992L0.30127 14.2964H1.50982L6.18601 8.86073L9.92105 14.2964H14.0002L8.45372 6.22443H8.45401ZM6.79875 8.1485L6.25686 7.37343L1.94527 1.20616H3.80153L7.28103 6.18335L7.82291 6.95841L12.3459 13.428H10.4896L6.79875 8.14879V8.1485Z"/>
</mask>
<path d="M8.45401 6.22443L13.5538 0.296387H12.3453L7.91717 5.44362L4.38046 0.296387H0.30127L5.64948 8.07992L0.30127 14.2964H1.50982L6.18601 8.86073L9.92105 14.2964H14.0002L8.45372 6.22443H8.45401ZM6.79875 8.1485L6.25686 7.37343L1.94527 1.20616H3.80153L7.28103 6.18335L7.82291 6.95841L12.3459 13.428H10.4896L6.79875 8.14879V8.1485Z" fill="#030917"/>
<path d="M8.45401 6.22443V7.22443H8.91286L9.2121 6.87659L8.45401 6.22443ZM13.5538 0.296387L14.3118 0.948546L15.7332 -0.703613H13.5538V0.296387ZM12.3453 0.296387V-0.703613H11.8864L11.5872 -0.355778L12.3453 0.296387ZM7.91717 5.44362L7.09298 6.00994L7.82837 7.0802L8.67525 6.09579L7.91717 5.44362ZM4.38046 0.296387L5.20465 -0.269924L4.90666 -0.703613H4.38046V0.296387ZM0.30127 0.296387V-0.703613H-1.59916L-0.522919 0.862702L0.30127 0.296387ZM5.64948 8.07992L6.40754 8.73211L6.90979 8.14832L6.47367 7.51361L5.64948 8.07992ZM0.30127 14.2964L-0.456792 13.6442L-1.87822 15.2964H0.30127V14.2964ZM1.50982 14.2964V15.2964H1.96866L2.26789 14.9485L1.50982 14.2964ZM6.18601 8.86073L7.0102 8.2944L6.2748 7.22417L5.42793 8.20857L6.18601 8.86073ZM9.92105 14.2964L9.09687 14.8627L9.39486 15.2964H9.92105V14.2964ZM14.0002 14.2964V15.2964H15.9007L14.8244 13.7301L14.0002 14.2964ZM8.45372 6.22443V5.22443H6.55326L7.62954 6.79076L8.45372 6.22443ZM6.79875 8.1485H7.79875V7.83359L7.61831 7.5755L6.79875 8.1485ZM6.25686 7.37343L5.43728 7.9464L5.4373 7.94643L6.25686 7.37343ZM1.94527 1.20616V0.206158H0.026019L1.1257 1.77913L1.94527 1.20616ZM3.80153 1.20616L4.62111 0.633196L4.32257 0.206158H3.80153V1.20616ZM7.28103 6.18335L6.46145 6.75631L6.46147 6.75634L7.28103 6.18335ZM7.82291 6.95841L8.64249 6.38544L8.64247 6.38542L7.82291 6.95841ZM12.3459 13.428V14.428H14.2651L13.1654 12.855L12.3459 13.428ZM10.4896 13.428L9.67003 14.001L9.96857 14.428H10.4896V13.428ZM6.79875 8.14879H5.79875V8.4637L5.97918 8.72178L6.79875 8.14879ZM9.2121 6.87659L14.3118 0.948546L12.7957 -0.355772L7.69593 5.57227L9.2121 6.87659ZM13.5538 -0.703613H12.3453V1.29639H13.5538V-0.703613ZM11.5872 -0.355778L7.1591 4.79146L8.67525 6.09579L13.1034 0.948552L11.5872 -0.355778ZM8.74137 4.87731L5.20465 -0.269924L3.55626 0.862697L7.09298 6.00994L8.74137 4.87731ZM4.38046 -0.703613H0.30127V1.29639H4.38046V-0.703613ZM-0.522919 0.862702L4.82529 8.64624L6.47367 7.51361L1.12546 -0.269929L-0.522919 0.862702ZM4.89142 7.42774L-0.456792 13.6442L1.05933 14.9486L6.40754 8.73211L4.89142 7.42774ZM0.30127 15.2964H1.50982V13.2964H0.30127V15.2964ZM2.26789 14.9485L6.94409 9.51289L5.42793 8.20857L0.751736 13.6442L2.26789 14.9485ZM5.36183 9.42705L9.09687 14.8627L10.7452 13.7301L7.0102 8.2944L5.36183 9.42705ZM9.92105 15.2964H14.0002V13.2964H9.92105V15.2964ZM14.8244 13.7301L9.2779 5.65811L7.62954 6.79076L13.1761 14.8627L14.8244 13.7301ZM8.45372 7.22443H8.45401V5.22443H8.45372V7.22443ZM7.61831 7.5755L7.07642 6.80044L5.4373 7.94643L5.97919 8.72149L7.61831 7.5755ZM7.07644 6.80046L2.76485 0.633186L1.1257 1.77913L5.43728 7.9464L7.07644 6.80046ZM1.94527 2.20616H3.80153V0.206158H1.94527V2.20616ZM2.98194 1.77912L6.46145 6.75631L8.10061 5.61038L4.62111 0.633196L2.98194 1.77912ZM6.46147 6.75634L7.00336 7.5314L8.64247 6.38542L8.10059 5.61035L6.46147 6.75634ZM7.00334 7.53138L11.5263 14.001L13.1654 12.855L8.64249 6.38544L7.00334 7.53138ZM12.3459 12.428H10.4896V14.428H12.3459V12.428ZM11.3092 12.855L7.61831 7.57581L5.97918 8.72178L9.67003 14.001L11.3092 12.855ZM7.79875 8.14879V8.1485H5.79875V8.14879H7.79875Z" fill="#030917" mask="url(#path-1-inside-1_122_615)"/>
</svg>
